<svg width="16" height="17" viewBox="0 0 16 17" fill="none" xmlns="http://www.w3.org/2000/svg">
<path d="M1.63605 5.793C1.82357 5.60553 2.07788 5.50021 2.34305 5.50021C2.60821 5.50021 2.86252 5.60553 3.05004 5.793L8.00003 10.743L12.95 5.793C13.1386 5.61084 13.3912 5.51005 13.6534 5.51233C13.9156 5.5146 14.1664 5.61977 14.3518 5.80518C14.5372 5.99059 14.6424 6.2414 14.6447 6.5036C14.647 6.7658 14.5462 7.0184 14.364 7.207L8.70703 12.864C8.5195 13.0515 8.2652 13.1568 8.00003 13.1568C7.73487 13.1568 7.48056 13.0515 7.29304 12.864L1.63605 7.207C1.44858 7.01947 1.34326 6.76516 1.34326 6.5C1.34326 6.23484 1.44858 5.98053 1.63605 5.793Z" fill="#686868"/>
</svg>
