<svg width="18" height="19" viewBox="0 0 18 19" fill="none" xmlns="http://www.w3.org/2000/svg">
<path d="M10.6 2.5152C10.6 1.9544 10.1456 1.5 9.5848 1.5H8.416C7.8544 1.5 7.4 1.9544 7.4 2.5152C7.4 2.9776 7.0832 3.3744 6.652 3.544C6.584 3.5712 6.516 3.6 6.4496 3.6288C6.0248 3.8128 5.52 3.7568 5.192 3.4296C5.00163 3.23937 4.74352 3.13251 4.4744 3.13251C4.20528 3.13251 3.94717 3.23937 3.7568 3.4296L2.9296 4.2568C2.73937 4.44717 2.63251 4.70528 2.63251 4.9744C2.63251 5.24352 2.73937 5.50163 2.9296 5.692C3.2576 6.02 3.3136 6.524 3.128 6.9496C3.09884 7.01658 3.07083 7.08406 3.044 7.152C2.8744 7.5832 2.4776 7.9 2.0152 7.9C1.4544 7.9 1 8.3544 1 8.9152V10.0848C1 10.6456 1.4544 11.1 2.0152 11.1C2.4776 11.1 2.8744 11.4168 3.044 11.848C3.0712 11.916 3.1 11.984 3.128 12.0504C3.3128 12.4752 3.2568 12.98 2.9296 13.308C2.73937 13.4984 2.63251 13.7565 2.63251 14.0256C2.63251 14.2947 2.73937 14.5528 2.9296 14.7432L3.7568 15.5704C3.94717 15.7606 4.20528 15.8675 4.4744 15.8675C4.74352 15.8675 5.00163 15.7606 5.192 15.5704C5.52 15.2424 6.024 15.1864 6.4496 15.3712C6.516 15.4008 6.584 15.4288 6.652 15.456C7.0832 15.6256 7.4 16.0224 7.4 16.4848C7.4 17.0456 7.8544 17.5 8.4152 17.5H9.5848C10.1456 17.5 10.6 17.0456 10.6 16.4848C10.6 16.0224 10.9168 15.6256 11.348 15.4552C11.416 15.4288 11.484 15.4008 11.5504 15.372C11.9752 15.1864 12.48 15.2432 12.8072 15.5704C12.9015 15.6647 13.0134 15.7395 13.1366 15.7906C13.2598 15.8416 13.3918 15.8679 13.5252 15.8679C13.6586 15.8679 13.7906 15.8416 13.9138 15.7906C14.037 15.7395 14.1489 15.6647 14.2432 15.5704L15.0704 14.7432C15.2606 14.5528 15.3675 14.2947 15.3675 14.0256C15.3675 13.7565 15.2606 13.4984 15.0704 13.308C14.7424 12.98 14.6864 12.476 14.8712 12.0504C14.9008 11.984 14.9288 11.916 14.956 11.848C15.1256 11.4168 15.5224 11.1 15.9848 11.1C16.5456 11.1 17 10.6456 17 10.0848V8.916C17 8.3552 16.5456 7.9008 15.9848 7.9008C15.5224 7.9008 15.1256 7.584 14.9552 7.1528C14.9284 7.08484 14.9004 7.01737 14.8712 6.9504C14.6872 6.5256 14.7432 6.0208 15.0704 5.6928C15.2606 5.50243 15.3675 5.24432 15.3675 4.9752C15.3675 4.70608 15.2606 4.44797 15.0704 4.2576L14.2432 3.4304C14.0528 3.24017 13.7947 3.13331 13.5256 3.13331C13.2565 3.13331 12.9984 3.24017 12.808 3.4304C12.48 3.7584 11.976 3.8144 11.5504 3.6296C11.4834 3.60017 11.416 3.5719 11.348 3.5448C10.9168 3.3744 10.6 2.9776 10.6 2.516V2.5152Z" stroke="white" stroke-width="2"/>
<path d="M12.2 9.5C12.2 10.3487 11.8629 11.1626 11.2628 11.7627C10.6627 12.3629 9.84874 12.7 9.00005 12.7C8.15136 12.7 7.33742 12.3629 6.73731 11.7627C6.13719 11.1626 5.80005 10.3487 5.80005 9.5C5.80005 8.65131 6.13719 7.83738 6.73731 7.23726C7.33742 6.63714 8.15136 6.3 9.00005 6.3C9.84874 6.3 10.6627 6.63714 11.2628 7.23726C11.8629 7.83738 12.2 8.65131 12.2 9.5V9.5Z" stroke="white" stroke-width="2"/>
</svg>
