<svg width="17" height="16" viewBox="0 0 17 16" fill="none" xmlns="http://www.w3.org/2000/svg">
<path d="M8.29289 14.2929C7.90237 14.6834 7.90237 15.3166 8.29289 15.7071C8.68342 16.0976 9.31658 16.0976 9.70711 15.7071L8.29289 14.2929ZM16 8L16.7071 8.70711C17.0976 8.31658 17.0976 7.68342 16.7071 7.29289L16 8ZM9.70711 0.292893C9.31658 -0.097632 8.68342 -0.0976321 8.29289 0.292893C7.90237 0.683417 7.90237 1.31658 8.29289 1.70711L9.70711 0.292893ZM9.70711 15.7071L16.7071 8.70711L15.2929 7.29289L8.29289 14.2929L9.70711 15.7071ZM16.7071 7.29289L9.70711 0.292893L8.29289 1.70711L15.2929 8.70711L16.7071 7.29289ZM16 7L6.99382e-07 7L5.24537e-07 9L16 9L16 7Z" fill="#5D3277"/>
</svg>
